<?xml version="1.0" encoding="UTF-8" standalone="no"?>
<svg width="18px" height="18px" viewBox="0 0 18 18" version="1.1" xmlns="http://www.w3.org/2000/svg" xmlns:xlink="http://www.w3.org/1999/xlink" xmlns:sketch="http://www.bohemiancoding.com/sketch/ns">
    <title>bone</title>
    <description>Created with Sketch (http://www.bohemiancoding.com/sketch)</description>
    <defs></defs>
    <g id="Page-1" stroke="none" stroke-width="1" fill="none" fill-rule="evenodd" sketch:type="MSPage">
        <g id="bone" sketch:type="MSArtboardGroup" fill="#97C459">
            <path d="M17.3804575,3.60646077 C16.5569722,2.78166769 15.2185675,2.78166769 14.3937965,3.60646077 C14.3661542,3.63474674 14.3404403,3.66431843 14.3160122,3.69389012 L14.3070124,3.68489004 C14.3359404,3.65917553 14.3661542,3.63474674 14.3937965,3.60646077 C15.2185675,2.78166769 15.2185675,1.4445129 14.3937965,0.619076956 C13.5690256,-0.206358985 12.2319066,-0.206358985 11.4071356,0.619076956 C10.5810789,1.4445129 10.5810789,2.78166769 11.4071356,3.60646077 L3.60556061,11.4076019 C2.77950394,10.581523 1.44238496,10.5828088 0.617613971,11.4076019 C-0.205871324,12.2311092 -0.205871324,13.5695497 0.617613971,14.3936999 C1.44367065,15.2204216 2.78078963,15.2197787 3.60556061,14.3936999 C3.66084534,14.3384137 3.712273,14.2805561 3.76112927,14.2188412 L3.78170033,14.2381271 C3.72127283,14.2869847 3.66084534,14.3384137 3.60556061,14.3936999 C2.78078963,15.2197787 2.77950394,16.5569335 3.60556061,17.3823695 C4.4303316,18.2058768 5.76809343,18.2058768 6.59286441,17.3823695 C7.4176354,16.5569335 7.4176354,15.2204216 6.59286441,14.3936999 L14.3937965,6.59448745 C15.2185675,7.41992339 16.5569722,7.41992339 17.3804575,6.59448745 C18.2065142,5.76969437 18.2065142,4.43125385 17.3804575,3.60646077" id="bone-bullet" sketch:type="MSShapeGroup"></path>
        </g>
    </g>
</svg>