<?xml version="1.0" encoding="UTF-8" standalone="no"?>
<svg width="375px" height="93px" viewBox="0 0 375 93" version="1.1" xmlns="http://www.w3.org/2000/svg" xmlns:xlink="http://www.w3.org/1999/xlink" xmlns:sketch="http://www.bohemiancoding.com/sketch/ns">
    <title>grass-light</title>
    <description>Created with Sketch (http://www.bohemiancoding.com/sketch)</description>
    <defs></defs>
    <g id="Page-1" stroke="none" stroke-width="1" fill="none" fill-rule="evenodd" sketch:type="MSPage">
        <g id="grass-light" sketch:type="MSArtboardGroup" fill="#637A3D">
            <path d="M-58,42.4086176 L-58,41.2675781 L-50.3691406,5.21679688 L-52.4550781,42.2246094 L-44.3671875,8.63085938 C-44.3671875,8.63085938 -44.8671875,47.7714844 -44.8671875,42.7675781 C-44.8671883,37.7636719 -39.2363281,14.0878906 -39.2363281,14.0878906 L-39.5839844,42.2675781 L-34.9980469,24.046875 L-34.9980469,40.7890625 L-28.9960938,15.8945312 L-29.3652344,45.5097656 L-24.0175781,0.611328125 L-22.6035156,45.6835938 L-15.8632812,17.0703125 L-16.9082031,47.7714844 L-7.25390625,5.61132812 L-9.84179688,46.5761719 L-3.88476562,16.0253906 L1.05273438,47.2929688 L1.05273438,6.0234375 L12.140625,46.4433594 L11.5976562,18.8515625 L18.3378906,45.1601562 L12.25,8.8817842e-16 L25.4472656,45.7695312 L21.6425781,21.5703125 L31.40625,44.1601562 L28.6230469,15.0253906 L38.6894531,43.9863281 L36.7988281,6.4140625 L44.7578125,43.5957031 L46.4746094,15.0898438 L54.6933594,43.2910156 L49.3222656,10.0683594 L67.390625,45.3554688 L58.2148438,21.9179688 L72.828125,43.9667969 L64.1308594,22.8105469 L78.3945312,45.4023438 L73.21875,6.41601563 L84.8085938,44.8808594 L89.6777344,27.8769531 L96.8964844,44.5527344 L95.1582031,10.1542969 L107.117188,43.4648438 L108.160156,26.8535156 L115.857422,38.1152344 L118.617188,17.1328125 L122.25,39.984375 L123.814453,8.43554688 C123.814453,8.43554688 126.16211,15.4375 126.162109,24.6113281 C126.162109,33.7851563 130,48.0499992 130,48.0499992 L130,93 L-57.5682372,93 L-245,93 L-245,41.2675781 L-237.369141,5.21679688 L-239.455078,42.2246094 L-231.367188,8.63085938 C-231.367188,8.63085938 -231.867188,47.7714844 -231.867188,42.7675781 C-231.867188,37.7636719 -226.236328,14.0878906 -226.236328,14.0878906 L-226.583984,42.2675781 L-221.998047,24.046875 L-221.998047,40.7890625 L-215.996094,15.8945312 L-216.365234,45.5097656 L-211.017578,0.611328125 L-209.603516,45.6835938 L-202.863281,17.0703125 L-203.908203,47.7714844 L-194.253906,5.61132812 L-196.841797,46.5761719 L-190.884766,16.0253906 L-185.947266,47.2929688 L-185.947266,6.0234375 L-174.859375,46.4433594 L-175.402344,18.8515625 L-168.662109,45.1601562 L-174.75,8.8817842e-16 L-161.552734,45.7695312 L-165.357422,21.5703125 L-155.59375,44.1601562 L-158.376953,15.0253906 L-148.310547,43.9863281 L-150.201172,6.4140625 L-142.242188,43.5957031 L-140.525391,15.0898438 L-132.306641,43.2910156 L-137.677734,10.0683594 L-119.609375,45.3554688 L-128.785156,21.9179688 L-114.171875,43.9667969 L-122.869141,22.8105469 L-108.605469,45.4023438 L-113.78125,6.41601563 L-102.191406,44.8808594 L-97.3222656,27.8769531 L-90.1035156,44.5527344 L-91.8417969,10.1542969 L-79.8828125,43.4648438 L-78.8398438,26.8535156 L-71.1425781,38.1152344 L-68.3828125,17.1328125 L-64.75,39.984375 L-63.1855469,8.43554688 C-63.1855469,8.43554688 -60.8378899,15.4375 -60.8378906,24.6113281 C-60.8378909,30.1033042 -59.2636341,37.4201301 -58,42.4086176 Z M-58,42.4086176" id="light" sketch:type="MSShapeGroup"></path>
            <path d="M315,42.4086176 L315,41.2675781 L322.630859,5.21679688 L320.544922,42.2246094 L328.632812,8.63085938 C328.632812,8.63085938 328.132812,47.7714844 328.132812,42.7675781 C328.132812,37.7636719 333.763672,14.0878906 333.763672,14.0878906 L333.416016,42.2675781 L338.001953,24.046875 L338.001953,40.7890625 L344.003906,15.8945312 L343.634766,45.5097656 L348.982422,0.611328125 L350.396484,45.6835938 L357.136719,17.0703125 L356.091797,47.7714844 L365.746094,5.61132812 L363.158203,46.5761719 L369.115234,16.0253906 L374.052734,47.2929688 L374.052734,6.0234375 L385.140625,46.4433594 L384.597656,18.8515625 L391.337891,45.1601562 L385.25,8.8817842e-16 L398.447266,45.7695312 L394.642578,21.5703125 L404.40625,44.1601562 L401.623047,15.0253906 L411.689453,43.9863281 L409.798828,6.4140625 L417.757812,43.5957031 L419.474609,15.0898438 L427.693359,43.2910156 L422.322266,10.0683594 L440.390625,45.3554688 L431.214844,21.9179688 L445.828125,43.9667969 L437.130859,22.8105469 L451.394531,45.4023438 L446.21875,6.41601563 L457.808594,44.8808594 L462.677734,27.8769531 L469.896484,44.5527344 L468.158203,10.1542969 L480.117188,43.4648438 L481.160156,26.8535156 L488.857422,38.1152344 L491.617188,17.1328125 L495.25,39.984375 L496.814453,8.43554688 C496.814453,8.43554688 499.16211,15.4375 499.162109,24.6113281 C499.162109,33.7851563 503,48.0499992 503,48.0499992 L503,93 L315.431763,93 L128,93 L128,41.2675781 L135.630859,5.21679688 L133.544922,42.2246094 L141.632812,8.63085938 C141.632812,8.63085938 141.132812,47.7714844 141.132812,42.7675781 C141.132812,37.7636719 146.763672,14.0878906 146.763672,14.0878906 L146.416016,42.2675781 L151.001953,24.046875 L151.001953,40.7890625 L157.003906,15.8945312 L156.634766,45.5097656 L161.982422,0.611328125 L163.396484,45.6835938 L170.136719,17.0703125 L169.091797,47.7714844 L178.746094,5.61132812 L176.158203,46.5761719 L182.115234,16.0253906 L187.052734,47.2929688 L187.052734,6.0234375 L198.140625,46.4433594 L197.597656,18.8515625 L204.337891,45.1601562 L198.25,8.8817842e-16 L211.447266,45.7695312 L207.642578,21.5703125 L217.40625,44.1601562 L214.623047,15.0253906 L224.689453,43.9863281 L222.798828,6.4140625 L230.757812,43.5957031 L232.474609,15.0898438 L240.693359,43.2910156 L235.322266,10.0683594 L253.390625,45.3554688 L244.214844,21.9179688 L258.828125,43.9667969 L250.130859,22.8105469 L264.394531,45.4023438 L259.21875,6.41601563 L270.808594,44.8808594 L275.677734,27.8769531 L282.896484,44.5527344 L281.158203,10.1542969 L293.117188,43.4648438 L294.160156,26.8535156 L301.857422,38.1152344 L304.617188,17.1328125 L308.25,39.984375 L309.814453,8.43554688 C309.814453,8.43554688 312.16211,15.4375 312.162109,24.6113281 C312.162109,30.1033042 313.736366,37.4201301 315,42.4086176 Z M315,42.4086176" id="light" sketch:type="MSShapeGroup"></path>
        </g>
    </g>
</svg>