<?xml version="1.0" encoding="UTF-8" standalone="no"?>
<svg width="375px" height="93px" viewBox="0 0 375 93" version="1.1" xmlns="http://www.w3.org/2000/svg" xmlns:xlink="http://www.w3.org/1999/xlink" xmlns:sketch="http://www.bohemiancoding.com/sketch/ns">
    <title>grass-mid</title>
    <description>Created with Sketch (http://www.bohemiancoding.com/sketch)</description>
    <defs></defs>
    <g id="Page-1" stroke="none" stroke-width="1" fill="none" fill-rule="evenodd" sketch:type="MSPage">
        <g id="grass-mid" sketch:type="MSArtboardGroup" fill="#44632B">
            <path d="M259,42.4086176 L259,41.2675781 L266.630859,5.21679688 L264.544922,42.2246094 L272.632812,8.63085938 C272.632812,8.63085938 272.132812,47.7714844 272.132812,42.7675781 C272.132812,37.7636719 277.763672,14.0878906 277.763672,14.0878906 L277.416016,42.2675781 L282.001953,24.046875 L282.001953,40.7890625 L288.003906,15.8945312 L287.634766,45.5097656 L292.982422,0.611328125 L294.396484,45.6835938 L301.136719,17.0703125 L300.091797,47.7714844 L309.746094,5.61132812 L307.158203,46.5761719 L313.115234,16.0253906 L318.052734,47.2929688 L318.052734,6.0234375 L329.140625,46.4433594 L328.597656,18.8515625 L335.337891,45.1601562 L329.25,8.8817842e-16 L342.447266,45.7695312 L338.642578,21.5703125 L348.40625,44.1601562 L345.623047,15.0253906 L355.689453,43.9863281 L353.798828,6.4140625 L361.757812,43.5957031 L363.474609,15.0898438 L371.693359,43.2910156 L366.322266,10.0683594 L384.390625,45.3554688 L375.214844,21.9179688 L389.828125,43.9667969 L381.130859,22.8105469 L395.394531,45.4023438 L390.21875,6.41601563 L401.808594,44.8808594 L406.677734,27.8769531 L413.896484,44.5527344 L412.158203,10.1542969 L424.117188,43.4648438 L425.160156,26.8535156 L432.857422,38.1152344 L435.617188,17.1328125 L439.25,39.984375 L440.814453,8.43554688 C440.814453,8.43554688 443.16211,15.4375 443.162109,24.6113281 C443.162109,33.7851563 447,48.0499992 447,48.0499992 L447,93 L259.431763,93 L72,93 L72,41.2675781 L79.6308594,5.21679688 L77.5449219,42.2246094 L85.6328125,8.63085938 C85.6328125,8.63085938 85.1328125,47.7714844 85.1328125,42.7675781 C85.1328117,37.7636719 90.7636719,14.0878906 90.7636719,14.0878906 L90.4160156,42.2675781 L95.0019531,24.046875 L95.0019531,40.7890625 L101.003906,15.8945312 L100.634766,45.5097656 L105.982422,0.611328125 L107.396484,45.6835938 L114.136719,17.0703125 L113.091797,47.7714844 L122.746094,5.61132812 L120.158203,46.5761719 L126.115234,16.0253906 L131.052734,47.2929688 L131.052734,6.0234375 L142.140625,46.4433594 L141.597656,18.8515625 L148.337891,45.1601562 L142.25,8.8817842e-16 L155.447266,45.7695312 L151.642578,21.5703125 L161.40625,44.1601562 L158.623047,15.0253906 L168.689453,43.9863281 L166.798828,6.4140625 L174.757812,43.5957031 L176.474609,15.0898438 L184.693359,43.2910156 L179.322266,10.0683594 L197.390625,45.3554688 L188.214844,21.9179688 L202.828125,43.9667969 L194.130859,22.8105469 L208.394531,45.4023438 L203.21875,6.41601563 L214.808594,44.8808594 L219.677734,27.8769531 L226.896484,44.5527344 L225.158203,10.1542969 L237.117188,43.4648438 L238.160156,26.8535156 L245.857422,38.1152344 L248.617188,17.1328125 L252.25,39.984375 L253.814453,8.43554688 C253.814453,8.43554688 256.16211,15.4375 256.162109,24.6113281 C256.162109,30.1033042 257.736366,37.4201301 259,42.4086176 Z M259,42.4086176" id="light" sketch:type="MSShapeGroup"></path>
            <path d="M-116,42.4086176 L-116,41.2675781 L-108.369141,5.21679688 L-110.455078,42.2246094 L-102.367188,8.63085938 C-102.367188,8.63085938 -102.867188,47.7714844 -102.867188,42.7675781 C-102.867188,37.7636719 -97.2363281,14.0878906 -97.2363281,14.0878906 L-97.5839844,42.2675781 L-92.9980469,24.046875 L-92.9980469,40.7890625 L-86.9960938,15.8945312 L-87.3652344,45.5097656 L-82.0175781,0.611328125 L-80.6035156,45.6835938 L-73.8632812,17.0703125 L-74.9082031,47.7714844 L-65.2539062,5.61132812 L-67.8417969,46.5761719 L-61.8847656,16.0253906 L-56.9472656,47.2929688 L-56.9472656,6.0234375 L-45.859375,46.4433594 L-46.4023438,18.8515625 L-39.6621094,45.1601562 L-45.75,8.8817842e-16 L-32.5527344,45.7695312 L-36.3574219,21.5703125 L-26.59375,44.1601562 L-29.3769531,15.0253906 L-19.3105469,43.9863281 L-21.2011719,6.4140625 L-13.2421875,43.5957031 L-11.5253906,15.0898438 L-3.30664062,43.2910156 L-8.67773438,10.0683594 L9.390625,45.3554688 L0.21484375,21.9179688 L14.828125,43.9667969 L6.13085938,22.8105469 L20.3945312,45.4023438 L15.21875,6.41601563 L26.8085938,44.8808594 L31.6777344,27.8769531 L38.8964844,44.5527344 L37.1582031,10.1542969 L49.1171875,43.4648438 L50.1601562,26.8535156 L57.8574219,38.1152344 L60.6171875,17.1328125 L64.25,39.984375 L65.8144531,8.43554688 C65.8144531,8.43554688 68.1621101,15.4375 68.1621094,24.6113281 C68.162109,33.7851563 72,48.0499992 72,48.0499992 L72,93 L-115.568237,93 L-303,93 L-303,41.2675781 L-295.369141,5.21679688 L-297.455078,42.2246094 L-289.367188,8.63085938 C-289.367188,8.63085938 -289.867188,47.7714844 -289.867188,42.7675781 C-289.867188,37.7636719 -284.236328,14.0878906 -284.236328,14.0878906 L-284.583984,42.2675781 L-279.998047,24.046875 L-279.998047,40.7890625 L-273.996094,15.8945312 L-274.365234,45.5097656 L-269.017578,0.611328125 L-267.603516,45.6835938 L-260.863281,17.0703125 L-261.908203,47.7714844 L-252.253906,5.61132812 L-254.841797,46.5761719 L-248.884766,16.0253906 L-243.947266,47.2929688 L-243.947266,6.0234375 L-232.859375,46.4433594 L-233.402344,18.8515625 L-226.662109,45.1601562 L-232.75,8.8817842e-16 L-219.552734,45.7695312 L-223.357422,21.5703125 L-213.59375,44.1601562 L-216.376953,15.0253906 L-206.310547,43.9863281 L-208.201172,6.4140625 L-200.242188,43.5957031 L-198.525391,15.0898438 L-190.306641,43.2910156 L-195.677734,10.0683594 L-177.609375,45.3554688 L-186.785156,21.9179688 L-172.171875,43.9667969 L-180.869141,22.8105469 L-166.605469,45.4023438 L-171.78125,6.41601563 L-160.191406,44.8808594 L-155.322266,27.8769531 L-148.103516,44.5527344 L-149.841797,10.1542969 L-137.882812,43.4648438 L-136.839844,26.8535156 L-129.142578,38.1152344 L-126.382812,17.1328125 L-122.75,39.984375 L-121.185547,8.43554688 C-121.185547,8.43554688 -118.83789,15.4375 -118.837891,24.6113281 C-118.837891,30.1033042 -117.263634,37.4201301 -116,42.4086176 Z M-116,42.4086176" id="light" sketch:type="MSShapeGroup"></path>
        </g>
    </g>
</svg>