<?xml version="1.0" encoding="UTF-8" standalone="no"?>
<svg width="375px" height="93px" viewBox="0 0 375 93" version="1.1" xmlns="http://www.w3.org/2000/svg" xmlns:xlink="http://www.w3.org/1999/xlink" xmlns:sketch="http://www.bohemiancoding.com/sketch/ns">
    <title>grass-dark</title>
    <description>Created with Sketch (http://www.bohemiancoding.com/sketch)</description>
    <defs></defs>
    <g id="Page-1" stroke="none" stroke-width="1" fill="none" fill-rule="evenodd" sketch:type="MSPage">
        <g id="grass-dark" sketch:type="MSArtboardGroup" fill="#3F5425">
            <path d="M187,42.4086176 L187,41.2675781 L194.630859,5.21679688 L192.544922,42.2246094 L200.632812,8.63085938 C200.632812,8.63085938 200.132812,47.7714844 200.132812,42.7675781 C200.132812,37.7636719 205.763672,14.0878906 205.763672,14.0878906 L205.416016,42.2675781 L210.001953,24.046875 L210.001953,40.7890625 L216.003906,15.8945312 L215.634766,45.5097656 L220.982422,0.611328125 L222.396484,45.6835938 L229.136719,17.0703125 L228.091797,47.7714844 L237.746094,5.61132812 L235.158203,46.5761719 L241.115234,16.0253906 L246.052734,47.2929688 L246.052734,6.0234375 L257.140625,46.4433594 L256.597656,18.8515625 L263.337891,45.1601562 L257.25,8.8817842e-16 L270.447266,45.7695312 L266.642578,21.5703125 L276.40625,44.1601562 L273.623047,15.0253906 L283.689453,43.9863281 L281.798828,6.4140625 L289.757812,43.5957031 L291.474609,15.0898438 L299.693359,43.2910156 L294.322266,10.0683594 L312.390625,45.3554688 L303.214844,21.9179688 L317.828125,43.9667969 L309.130859,22.8105469 L323.394531,45.4023438 L318.21875,6.41601563 L329.808594,44.8808594 L334.677734,27.8769531 L341.896484,44.5527344 L340.158203,10.1542969 L352.117188,43.4648438 L353.160156,26.8535156 L360.857422,38.1152344 L363.617188,17.1328125 L367.25,39.984375 L368.814453,8.43554688 C368.814453,8.43554688 371.16211,15.4375 371.162109,24.6113281 C371.162109,33.7851563 375,48.0499992 375,48.0499992 L375,93 L187.431763,93 L3.12203032e-15,93 L0,41.2675781 L7.63085937,5.21679688 L5.54492188,42.2246094 L13.6328125,8.63085938 C13.6328125,8.63085938 13.1328125,47.7714844 13.1328125,42.7675781 C13.1328117,37.7636719 18.7636719,14.0878906 18.7636719,14.0878906 L18.4160156,42.2675781 L23.0019531,24.046875 L23.0019531,40.7890625 L29.0039063,15.8945312 L28.6347656,45.5097656 L33.9824219,0.611328125 L35.3964844,45.6835938 L42.1367188,17.0703125 L41.0917969,47.7714844 L50.7460938,5.61132812 L48.1582031,46.5761719 L54.1152344,16.0253906 L59.0527344,47.2929688 L59.0527344,6.0234375 L70.140625,46.4433594 L69.5976562,18.8515625 L76.3378906,45.1601562 L70.25,8.8817842e-16 L83.4472656,45.7695312 L79.6425781,21.5703125 L89.40625,44.1601562 L86.6230469,15.0253906 L96.6894531,43.9863281 L94.7988281,6.4140625 L102.757812,43.5957031 L104.474609,15.0898438 L112.693359,43.2910156 L107.322266,10.0683594 L125.390625,45.3554688 L116.214844,21.9179688 L130.828125,43.9667969 L122.130859,22.8105469 L136.394531,45.4023438 L131.21875,6.41601563 L142.808594,44.8808594 L147.677734,27.8769531 L154.896484,44.5527344 L153.158203,10.1542969 L165.117188,43.4648438 L166.160156,26.8535156 L173.857422,38.1152344 L176.617188,17.1328125 L180.25,39.984375 L181.814453,8.43554688 C181.814453,8.43554688 184.16211,15.4375 184.162109,24.6113281 C184.162109,30.1033042 185.736366,37.4201301 187,42.4086176 Z M187,42.4086176" id="light" sketch:type="MSShapeGroup"></path>
        </g>
    </g>
</svg>