<?xml version="1.0" encoding="UTF-8" standalone="no"?>
<svg width="90px" height="550px" viewBox="0 0 90 550" version="1.1" xmlns="http://www.w3.org/2000/svg" xmlns:xlink="http://www.w3.org/1999/xlink" xmlns:sketch="http://www.bohemiancoding.com/sketch/ns">
    <title>weather sprite</title>
    <description>Created with Sketch (http://www.bohemiancoding.com/sketch)</description>
    <defs></defs>
    <g id="Page-1" stroke="none" stroke-width="1" fill="none" fill-rule="evenodd" sketch:type="MSPage">
        <g id="weather-sprite" sketch:type="MSArtboardGroup">
            <g id="mostly-cloudy" sketch:type="MSLayerGroup">
                <path d="M27.9636159,53.2283333 C30.3001226,53.2283333 32.644903,53.6733333 34.9317671,54.555 L35.1683963,54.645 C35.2213483,54.5733333 35.2759551,54.5033333 35.3322165,54.4333333 C35.580429,54.1183333 35.831951,53.8033333 36.0785087,53.5216667 C36.1827579,53.4 36.2936261,53.2783333 36.4028396,53.1616667 L36.5418386,53.01 C36.9919305,52.5216667 37.4536057,52.0583333 37.9103166,51.6333333 C38.1088866,51.4483333 38.3074566,51.265 38.5275383,51.0716667 C38.7906435,50.845 39.0570582,50.62 39.3416752,50.3966667 C39.6246374,50.1733333 39.9191828,49.9583333 40.2120735,49.7466667 C40.579428,49.4816667 40.9517467,49.2266667 41.3488866,48.9733333 C41.6765271,48.77 42.0025128,48.5683333 42.3367722,48.3766667 C42.5866394,48.2333333 42.8398161,48.095 43.0963023,47.96 C43.6225128,47.6866667 44.1056997,47.4533333 44.5624106,47.255 C44.7179571,47.1866667 44.8735036,47.1233333 45.0290501,47.06 L45.1630848,47.005 C45.6744025,46.7983333 46.1840654,46.6116667 46.6589785,46.4566667 C46.8691318,46.3866667 47.079285,46.32 47.3059857,46.2533333 C48.0390398,46.035 48.659571,45.8783333 49.2006742,45.7666667 C49.2883759,45.7466667 49.3843514,45.7316667 49.4770174,45.7166667 C50.047906,45.605 50.6585087,45.5116667 51.3535036,45.43 L51.7059653,45.395 L51.9028805,45.3733333 C52.7004699,45.3 53.3855363,45.2666667 54.0524004,45.2666667 C54.5405516,45.2666667 55.0187743,45.3016667 55.5003064,45.335 L55.6359959,45.3283333 C58.4606537,45.5183333 61.1661696,46.24 63.6731154,47.3683333 C62.4386721,42.5866667 58.1363228,39.05 53.0049438,39.05 C52.3728294,39.05 51.760572,39.115 51.1632074,39.2166667 C49.1295199,32.6483333 43.2435751,27.7983333 36.1711747,27.33 L36.1711747,27.3416667 C35.798856,27.3166667 35.4265373,27.2833333 35.0492543,27.2833333 C34.5329724,27.2833333 34.0299285,27.3166667 33.5285393,27.3616667 C33.3961593,27.3716667 33.2670889,27.3883333 33.1380184,27.4016667 C32.6730337,27.455 32.214668,27.5216667 31.7629213,27.6116667 C31.7265169,27.62 31.6901124,27.6216667 31.6520531,27.63 C31.1854137,27.7266667 30.727048,27.85 30.2769561,27.9833333 C30.1280286,28.03 29.9807559,28.075 29.8367926,28.1216667 C29.4760572,28.2416667 29.120286,28.3716667 28.7711338,28.5133333 C28.6288253,28.57 28.4881716,28.6266667 28.3491726,28.6866667 C27.9950562,28.84 27.6475587,29.0083333 27.3066803,29.1883333 C27.1296221,29.2833333 26.9509091,29.38 26.7771604,29.4783333 C26.5372217,29.6166667 26.3005924,29.7616667 26.0672727,29.9116667 C25.7975485,30.0833333 25.5327886,30.2616667 25.2746476,30.4483333 C25.0644944,30.6016667 24.8543412,30.7533333 24.6508069,30.9133333 C24.452237,31.07 24.2586313,31.2316667 24.0699898,31.3983333 C23.9260266,31.5216667 23.7837181,31.6516667 23.6447191,31.7833333 C23.3054954,32.0983333 22.9795097,32.4266667 22.6651073,32.7683333 C22.5592033,32.885 22.4516445,32.9966667 22.3490501,33.115 C22.1653728,33.3283333 21.9866599,33.5466667 21.8162206,33.7683333 C21.7152809,33.895 21.6226149,34.0233333 21.5266394,34.1516667 C21.2436772,34.535 20.9789173,34.93 20.7273953,35.3366667 L19.3456793,35.12 C17.6048825,34.3016667 15.6787538,33.82 13.6318284,33.82 C6.10602656,33.82 0.00330949949,39.9666667 0.00330949949,47.5483333 C0.00330949949,54.6283333 5.33325843,60.43 12.1657201,61.1716667 C15.8012053,56.3616667 21.5100919,53.2283333 27.9636159,53.2283333 M75.9182635,62.93 C75.1521144,62.93 74.4058223,63.01 73.6760776,63.1333333 C71.200572,55.1316667 64.0321961,49.225 55.4159142,48.655 L55.4159142,48.6683333 C54.9641675,48.6366667 54.5091113,48.5983333 54.0524004,48.5983333 C53.4252503,48.5983333 52.8113381,48.6366667 52.1974259,48.6916667 C52.03857,48.71 51.8813687,48.725 51.7225128,48.74 C51.1598979,48.805 50.5972829,48.8866667 50.047906,48.9983333 C50.0065373,49.005 49.9568948,49.01 49.9122165,49.02 C49.3429826,49.1383333 48.7869867,49.2866667 48.2359551,49.45 C48.0572421,49.5033333 47.8785291,49.5616667 47.7014709,49.6216667 C47.2613075,49.765 46.8294178,49.9233333 46.4024923,50.0966667 C46.2303984,50.1666667 46.0599591,50.2333333 45.8911747,50.3083333 C45.4576302,50.495 45.0340143,50.7016667 44.6186721,50.9183333 C44.4002451,51.0316667 44.1851277,51.1516667 43.971665,51.2733333 C43.680429,51.44 43.3941573,51.6183333 43.1078856,51.7966667 C42.7802451,52.0066667 42.4575689,52.2233333 42.1431665,52.4533333 C41.8866803,52.6366667 41.6301941,52.825 41.3836364,53.02 C41.1420429,53.21 40.9070684,53.4083333 40.6754035,53.6083333 C40.4983453,53.7633333 40.327906,53.9216667 40.1574668,54.08 C39.7454341,54.4633333 39.3466394,54.865 38.966047,55.2783333 C38.8369765,55.4216667 38.7062513,55.5583333 38.582145,55.7033333 C38.3554443,55.9616667 38.1403269,56.23 37.9285189,56.5016667 C37.8093769,56.6533333 37.6918897,56.81 37.577712,56.9666667 C37.405618,57.2033333 37.2500715,57.455 37.0845965,57.6966667 C35.2196936,60.68 34.1242492,64.2016667 34.1176302,67.99 L31.2284372,67.99 C31.2284372,64.265 32.148478,60.7533333 33.7535853,57.67 C31.9499081,56.9766667 30.0105414,56.5633333 27.9636159,56.5633333 C18.7946476,56.5633333 11.3615117,64.05 11.3615117,73.2816667 C11.3615117,82.0666667 18.0946885,89.2583333 26.6464351,89.935 L26.6464351,90 L75.9182635,90 C83.3398161,90 89.358141,83.9383333 89.358141,76.465 C89.358141,68.9916667 83.3398161,62.93 75.9182635,62.93" id="Shape" fill="#C9C9C9" sketch:type="MSShapeGroup"></path>
                <path d="M80.2106844,35.2 L89.358141,32.66 L80.0998161,29.9583333 C75.0197344,28.4716667 73.4229009,23.9733333 76.5536874,19.9633333 L82.2493361,12.6666667 L73.2723187,15.6966667 C68.3428192,17.3583333 64.3449438,14.5533333 64.3846578,9.46166667 L64.4591216,0.193333333 L59.1970174,7.79833333 C56.3045148,11.9733333 51.4345863,11.9316667 48.3666803,7.70333333 L42.7868641,0 L43.2419203,9.27 C43.495097,14.3666667 39.6064351,17.1066667 34.6057814,15.3566667 L25.5046578,12.165 L31.5064351,19.57 C32.7160572,21.0633333 33.2852911,22.6083333 33.2803269,24.0366667 C33.9438815,23.9783333 34.5081512,23.9483333 35.0475996,23.9483333 C35.4430848,23.9483333 35.8336057,23.9733333 36.2224719,24.0016667 L36.3879469,24.0016667 C36.6924208,24.0216667 36.99524,24.0583333 37.2980592,24.0933333 C40.4089888,17.5733333 46.9485598,13.3433333 54.3072319,13.3433333 C56.2432891,13.3433333 58.1627988,13.6433333 60.0177732,14.24 C69.9330337,17.4233333 75.4301124,28.1366667 72.2695403,38.12 C71.2187743,41.4483333 69.3158121,44.2983333 66.8618182,46.5016667 C67.1034116,47.4283333 67.2523391,48.3866667 67.3086006,49.3733333 C67.4823493,49.49 67.6643718,49.6033333 67.8381205,49.7266667 C69.3919305,48.71 71.5480695,48.4983333 73.9706231,49.3433333 L83.0717467,52.535 L77.0683146,45.1333333 C73.7753626,41.065 75.1885189,36.5966667 80.2106844,35.2" id="Shape" fill="#FFCE00" sketch:type="MSShapeGroup"></path>
                <path d="M59.0116854,17.4166667 C57.4512564,16.915 55.8676609,16.6783333 54.3055771,16.6783333 C48.7009397,16.6783333 43.4255975,19.765 40.6754035,24.7766667 C46.2204699,26.4133333 50.8967926,30.4133333 53.3557508,35.7183333 C58.5946885,35.85 63.1386313,38.825 65.5363636,43.16 C67.1232686,41.4933333 68.3742594,39.455 69.1172421,37.11 C71.7201634,28.885 67.1795301,20.0366667 59.0116854,17.4166667" id="Shape" fill="#FFCE00" sketch:type="MSShapeGroup"></path>
            </g>
            <g id="snow" sketch:type="MSLayerGroup" transform="translate(0.000000, 121.000000)" fill="#EAEAEA">
                <path d="M73.1421818,16.4515714 C72.2732727,16.4515714 71.4256364,16.5419286 70.5976364,16.6832143 C67.7896364,7.6475 59.67,0.975857143 49.9090909,0.330214286 L49.9090909,0.346642857 C49.3952727,0.312142857 48.8830909,0.266142857 48.3627273,0.266142857 C47.6525455,0.266142857 46.9570909,0.312142857 46.2632727,0.372928571 C46.0849091,0.389357143 45.9016364,0.407428571 45.7232727,0.427142857 C45.0834545,0.501071429 44.4518182,0.594714286 43.8283636,0.716285714 C43.7776364,0.729428571 43.7252727,0.732714286 43.6745455,0.744214286 C43.0330909,0.877285714 42.3998182,1.0465 41.7763636,1.22885714 C41.5718182,1.28964286 41.3705455,1.35535714 41.1692727,1.41942857 C40.6701818,1.58207143 40.1809091,1.76278571 39.6998182,1.95828571 C39.5034545,2.0355 39.3087273,2.11107143 39.1172727,2.19485714 C38.628,2.41007143 38.1485455,2.64171429 37.6789091,2.88814286 C37.4334545,3.01628571 37.1896364,3.151 36.9474545,3.28571429 C36.6152727,3.47628571 36.2912727,3.67507143 35.9689091,3.88042857 C35.5958182,4.117 35.2309091,4.36507143 34.8725455,4.62135714 C34.5829091,4.83 34.2949091,5.03864286 34.0134545,5.26042857 C33.7418182,5.474 33.4734545,5.69907143 33.2116364,5.92742857 C33.0136364,6.09664286 32.8172727,6.27735714 32.6258182,6.45642857 C32.1561818,6.89014286 31.7094545,7.34192857 31.2774545,7.81014286 C31.1301818,7.97114286 30.9796364,8.12557143 30.8389091,8.28821429 C30.5836364,8.58064286 30.3414545,8.88292857 30.1009091,9.18685714 C29.9634545,9.361 29.8325455,9.54007143 29.7016364,9.71585714 C29.5069091,9.982 29.3318182,10.2645714 29.142,10.5405714 C27.0327273,13.9100714 25.7907273,17.8857857 25.7841818,22.1637857 L22.5114545,22.1637857 C22.5114545,17.9531429 23.5521818,13.9938571 25.3718182,10.5060714 C23.3263636,9.72242857 21.1270909,9.2575 18.81,9.2575 C8.42236364,9.2575 0.00163636364,17.7132857 0.00163636364,28.1405 C0.00163636364,38.0633571 7.63036364,46.1807143 17.3176364,46.9462857 L17.3176364,47.0218571 L73.1421818,47.0218571 C81.5481818,47.0218571 88.3652727,40.181 88.3652727,31.74 C88.3652727,23.2957143 81.5481818,16.4515714 73.1421818,16.4515714" id="Shape" sketch:type="MSShapeGroup"></path>
                <path d="M47.7147273,62.2741429 L51.912,62.2741429 L51.912,59.1083571 L47.7081818,59.1083571 L50.6847273,56.12 L48.4494545,53.8807857 L45.4778182,56.8625714 L45.4778182,52.6420714 L42.3196364,52.6420714 L42.3196364,56.8642143 L39.348,53.8807857 L37.116,56.12 L40.0925455,59.1083571 L35.8854545,59.1083571 L35.8854545,62.2741429 L40.086,62.2741429 L37.1127273,65.2592143 L39.348,67.5017143 L42.3196364,64.5166429 L42.3196364,68.7338571 L45.4778182,68.7338571 L45.4778182,64.5166429 L48.4494545,67.5017143 L50.6847273,65.2592143 L47.7147273,62.2741429 Z M47.7147273,62.2741429" id="Shape" sketch:type="MSShapeGroup"></path>
                <path d="M23.5047273,65.4859286 L23.5047273,61.8946429 L26.0361818,64.4345 L27.6889091,62.7768571 L25.1607273,60.2386429 L28.7329091,60.2386429 L28.7329091,57.8959286 L25.1541818,57.8959286 L27.6889091,55.3478571 L26.0361818,53.6967857 L23.5047273,56.235 L23.5047273,52.6420714 L21.1696364,52.6420714 L21.1696364,56.2333571 L18.6398182,53.6967857 L16.9887273,55.3478571 L19.5250909,57.8959286 L15.9398182,57.8959286 L15.9398182,60.2386429 L19.5152727,60.2386429 L16.9887273,62.7768571 L18.6398182,64.4345 L21.1696364,61.8962857 L21.1696364,65.4859286 L23.5047273,65.4859286 Z M23.5047273,65.4859286" id="Shape" sketch:type="MSShapeGroup"></path>
                <path d="M70.5321818,55.3478571 L68.8827273,53.6967857 L66.3512727,56.235 L66.3512727,52.6437143 L64.0112727,52.6437143 L64.0112727,56.2333571 L61.4830909,53.6967857 L59.8336364,55.3478571 L62.3683636,57.8959286 L58.7863636,57.8959286 L58.7863636,60.2386429 L62.3618182,60.2386429 L59.8336364,62.7768571 L61.4830909,64.4345 L64.0112727,61.8962857 L64.0112727,65.4859286 L66.3512727,65.4859286 L66.3512727,61.8946429 L68.8794545,64.4345 L70.5321818,62.7768571 L68.004,60.2386429 L71.5761818,60.2386429 L71.5761818,57.8959286 L67.9974545,57.8959286 L70.5321818,55.3478571 Z M70.5321818,55.3478571" id="Shape" sketch:type="MSShapeGroup"></path>
            </g>
            <g id="cloudy" sketch:type="MSLayerGroup" transform="translate(0.000000, 226.000000)" fill="#E9E9E9">
                <path d="M73.1389091,40.9450909 C72.27,40.9450909 71.4223636,41.0350909 70.5927273,41.1758182 C67.788,32.1758182 59.6667273,25.5305455 49.9058182,24.8874545 L49.9058182,24.9038182 C49.3952727,24.8694545 48.8830909,24.8252727 48.3594545,24.8252727 C47.6492727,24.8252727 46.9538182,24.8694545 46.26,24.9316364 C46.0816364,24.948 45.9016364,24.9643636 45.7232727,24.9856364 C45.0834545,25.0576364 44.4485455,25.1509091 43.8250909,25.2736364 C43.7776364,25.2834545 43.7236364,25.29 43.6712727,25.2981818 C43.0298182,25.4307273 42.3998182,25.5992727 41.7730909,25.7841818 C41.5718182,25.8430909 41.3672727,25.9069091 41.1692727,25.974 C40.6701818,26.1343636 40.1792727,26.3143636 39.6965455,26.5090909 C39.5018182,26.5876364 39.3087273,26.6629091 39.1172727,26.7463636 C38.628,26.9590909 38.1485455,27.1914545 37.6789091,27.4352727 C37.4334545,27.5629091 37.1896364,27.6954545 36.9474545,27.8312727 C36.6152727,28.0194545 36.2929091,28.2207273 35.9689091,28.4236364 C35.5958182,28.6592727 35.2309091,28.9047273 34.8725455,29.16 C34.5829091,29.3678182 34.2949091,29.5772727 34.0134545,29.7965455 C33.7418182,30.0125455 33.4734545,30.2350909 33.2116364,30.4609091 C33.0136364,30.6327273 32.8189091,30.8110909 32.6258182,30.9894545 C32.1561818,31.4214545 31.7094545,31.8714545 31.2774545,32.3378182 C31.1301818,32.4981818 30.9796364,32.6536364 30.8405455,32.8156364 C30.5836364,33.1069091 30.3414545,33.4063636 30.1009091,33.7107273 C29.9634545,33.8841818 29.8325455,34.0592727 29.7016364,34.2343636 C29.5069091,34.5010909 29.3318182,34.7825455 29.142,35.0574545 C27.0327273,38.4136364 25.7907273,42.3736364 25.7841818,46.6347273 L22.5114545,46.6347273 C22.5114545,42.4423636 23.5521818,38.4954545 25.3718182,35.0247273 C23.3263636,34.2441818 21.1270909,33.7810909 18.81,33.7810909 C8.42236364,33.7810909 0.00163636364,42.2018182 0.00163636364,52.5878182 C0.00163636364,62.4698182 7.63036364,70.5567273 17.3176364,71.3192727 L17.3176364,71.3945455 L73.1389091,71.3945455 C81.5481818,71.3945455 88.3652727,64.5774545 88.3652727,56.1698182 C88.3652727,47.7621818 81.5481818,40.9450909 73.1389091,40.9450909 M18.81,30.51 C21.3987273,30.51 24.0005455,31.0009091 26.5352727,31.9696364 L27.1390909,32.1987273 C27.27,32.022 27.4041818,31.8469091 27.5252727,31.6930909 C27.8034545,31.3396364 28.0849091,30.9927273 28.3598182,30.6801818 C28.4874545,30.5345455 28.6183636,30.3921818 28.7525455,30.2498182 L28.8736364,30.1189091 C29.3890909,29.5609091 29.8930909,29.0569091 30.3921818,28.6003636 C30.6098182,28.3958182 30.834,28.1912727 31.0827273,27.9736364 C31.3772727,27.7249091 31.6734545,27.4761818 31.9941818,27.2225455 C32.31,26.9754545 32.6356364,26.7365455 32.9710909,26.4976364 C33.3769091,26.2063636 33.7925455,25.9281818 34.2245455,25.6532727 C34.5927273,25.4258182 34.956,25.2 35.3438182,24.9807273 C35.6170909,24.8269091 35.892,24.678 36.1701818,24.5323636 C36.7527273,24.2296364 37.2927273,23.9727273 37.8163636,23.7452727 C38.0209091,23.6569091 38.2287273,23.5734545 38.4725455,23.4769091 C39.0272727,23.2494545 39.5967273,23.0432727 40.1465455,22.8649091 C40.3838182,22.788 40.6194545,22.7127273 40.8436364,22.6489091 C41.6323636,22.4149091 42.3425455,22.2332727 43.0674545,22.0843636 L43.1918182,22.0647273 C43.8692727,21.9305455 44.5794545,21.8209091 45.3469091,21.7358182 C45.5547273,21.7129091 45.7625455,21.69 45.9703636,21.6736364 C46.8670909,21.5918182 47.6296364,21.5541818 48.3610909,21.5541818 C48.924,21.5541818 49.4476364,21.5918182 49.9074545,21.6245455 L50.1218182,21.6229091 C60.0938182,22.2807273 68.8958182,28.6134545 72.7887273,37.6772727 C72.9065455,37.6756364 73.026,37.674 73.1405455,37.674 C75.0616364,37.674 76.9156364,37.9701818 78.6567273,38.5150909 C84.2138182,37.2469091 88.3669091,32.2821818 88.3669091,26.3405455 C88.3669091,19.4367273 82.7705455,13.8403636 75.8667273,13.8403636 C75.1532727,13.8403636 74.4578182,13.914 73.7770909,14.0301818 C71.4763636,6.64036364 64.8098182,1.18472727 56.7965455,0.657818182 L56.7965455,0.672545455 C56.3743636,0.643090909 55.9521818,0.607090909 55.5250909,0.607090909 C54.9441818,0.607090909 54.3714545,0.643090909 53.802,0.693818182 C53.6514545,0.705272727 53.5041818,0.723272727 53.3585455,0.738 C52.8349091,0.798545455 52.3129091,0.873818182 51.8023636,0.973636364 C51.7614545,0.983454545 51.7189091,0.988363636 51.678,0.996545455 C51.1478182,1.10290909 50.6290909,1.242 50.1185455,1.39418182 C49.9516364,1.44327273 49.7863636,1.49563636 49.6194545,1.54963636 C49.2103636,1.68218182 48.8078182,1.82945455 48.4118182,1.98818182 C48.2514545,2.052 48.0927273,2.11581818 47.9356364,2.18290909 C47.5330909,2.358 47.1403636,2.54781818 46.7525455,2.74909091 C46.5512727,2.85381818 46.3532727,2.96345455 46.1552727,3.07472727 C45.8836364,3.23018182 45.6152727,3.39381818 45.3501818,3.56072727 C45.0425455,3.75381818 44.7463636,3.95509091 44.4518182,4.16454545 C44.2112727,4.33636364 43.9756364,4.50818182 43.7449091,4.68981818 C43.5223636,4.86490909 43.3014545,5.04818182 43.0870909,5.23472727 C42.9234545,5.37545455 42.7647273,5.52109091 42.6043636,5.66672727 C42.2214545,6.02181818 41.8532727,6.39163636 41.4981818,6.77454545 C41.3770909,6.90545455 41.256,7.03309091 41.1381818,7.16563636 C40.9303636,7.40618182 40.7290909,7.65163636 40.5327273,7.902 C40.4214545,8.04436364 40.3134545,8.18672727 40.2070909,8.33236364 C39.888,8.76272727 39.5836364,9.20618182 39.3005455,9.66436364 L37.7361818,9.42054545 C35.7643636,8.50090909 33.5847273,7.95927273 31.2643636,7.95927273 C22.7372727,7.95927273 15.8252727,14.8712727 15.8252727,23.3983636 C15.8252727,25.9952727 16.4798182,28.4301818 17.6187273,30.5721818 C18.0114545,30.5476364 18.4074545,30.51 18.81,30.51" id="Shape" sketch:type="MSShapeGroup"></path>
            </g>
            <g id="rain" sketch:type="MSLayerGroup" transform="translate(0.000000, 341.000000)">
                <path d="M27.4189091,56.1435 C25.6745455,57.7518571 23.1872727,58.9938571 22.2103636,60.8535714 C21.1418182,62.8792143 21.9125455,65.3878571 23.9269091,66.4639286 C25.9461818,67.5268571 28.4449091,66.7563571 29.5134545,64.7290714 C30.4903636,62.8693571 30.114,60.1060714 30.456,57.7535 C30.9665455,54.2279286 31.5556364,51.9755714 31.5556364,51.9739286 C31.5556364,51.9722857 30.0338182,53.7317857 27.4189091,56.1435 M5.69127273,56.1435 C3.95018182,57.7518571 1.46290909,58.9938571 0.481090909,60.8535714 C-0.585818182,62.8792143 0.188181818,65.3878571 2.20090909,66.4639286 C4.21854545,67.5268571 6.71727273,66.7563571 7.78418182,64.7290714 C8.766,62.8693571 8.388,60.1060714 8.72672727,57.7535 C9.24218182,54.2279286 9.82963636,51.9755714 9.82963636,51.9739286 C9.82963636,51.9722857 8.30618182,53.7317857 5.69127273,56.1435 M49.1465455,56.1435 C47.4021818,57.7518571 44.9149091,58.9938571 43.9363636,60.8535714 C42.8694545,62.8792143 43.6418182,65.3878571 45.6529091,66.4639286 C47.6721818,67.5268571 50.1725455,66.7563571 51.2394545,64.7290714 C52.218,62.8693571 51.84,60.1060714 52.182,57.7535 C52.6925455,54.2279286 53.2849091,51.9755714 53.2816364,51.9739286 C53.2832727,51.9739286 51.7614545,53.7317857 49.1465455,56.1435 M70.8741818,56.1435 C69.1330909,57.7518571 66.6425455,58.9938571 65.664,60.8535714 C64.5970909,62.8792143 65.3694545,65.3878571 67.3838182,66.4639286 C69.3998182,67.5268571 71.9001818,66.7563571 72.9670909,64.7290714 C73.9456364,62.8693571 73.5709091,60.1060714 73.908,57.7535 C74.4234545,54.2279286 75.0125455,51.9755714 75.0125455,51.9739286 C75.0092727,51.9739286 73.4874545,53.7317857 70.8741818,56.1435" id="Shape" fill="#77C5FE" sketch:type="MSShapeGroup"></path>
                <path d="M73.1389091,16.2417857 C72.2732727,16.2417857 71.4256364,16.3321429 70.5943636,16.4734286 C67.7912727,7.43771429 59.67,0.766071429 49.9090909,0.120428571 L49.9090909,0.136857143 C49.3952727,0.102357143 48.8830909,0.0563571429 48.3627273,0.0563571429 C47.6525455,0.0563571429 46.9570909,0.102357143 46.2632727,0.163142857 C46.0849091,0.179571429 45.9016364,0.197642857 45.7232727,0.217357143 C45.0834545,0.291285714 44.4518182,0.384928571 43.8283636,0.5065 C43.7776364,0.518 43.7252727,0.522928571 43.6745455,0.532785714 C43.0298182,0.6675 42.3998182,0.835071429 41.7763636,1.01907143 C41.5718182,1.07985714 41.3705455,1.14557143 41.1692727,1.20964286 C40.6701818,1.37228571 40.1809091,1.553 39.6981818,1.7485 C39.5034545,1.82571429 39.3087273,1.90128571 39.1172727,1.98507143 C38.628,2.20028571 38.1485455,2.43192857 37.6789091,2.67835714 C37.4334545,2.8065 37.1896364,2.93957143 36.9474545,3.07592857 C36.6152727,3.2665 36.288,3.46528571 35.9656364,3.67064286 C35.5958182,3.90721429 35.2309091,4.15364286 34.8725455,4.40992857 C34.5829091,4.61857143 34.2949091,4.82885714 34.0134545,5.05064286 C33.7418182,5.26421429 33.4734545,5.48928571 33.2116364,5.716 C33.0103636,5.88685714 32.8172727,6.06757143 32.6225455,6.24664286 C32.1561818,6.68035714 31.7061818,7.13214286 31.2741818,7.60035714 C31.1301818,7.76135714 30.9796364,7.91578571 30.8356364,8.07842857 C30.5836364,8.37085714 30.3381818,8.67314286 30.1009091,8.97707143 C29.9634545,9.15121429 29.8325455,9.32864286 29.7016364,9.50442857 C29.5036364,9.77221429 29.3285455,10.0547857 29.142,10.3307857 C27.0327273,13.7002857 25.7890909,17.676 25.7841818,21.954 L22.5081818,21.954 C22.5081818,17.7433571 23.5489091,13.7840714 25.3685455,10.2962857 C23.3263636,9.51264286 21.1270909,9.04771429 18.81,9.04771429 C8.42236364,9.04771429 0.00163636364,17.5035 0.00163636364,27.9307143 C0.00163636364,37.8519286 7.63036364,45.9692857 17.3176364,46.7365 L17.3176364,46.8104286 L73.1389091,46.8104286 C81.5481818,46.8104286 88.3652727,39.9679286 88.3652727,31.5285714 C88.3652727,23.0859286 81.5481818,16.2417857 73.1389091,16.2417857" id="Shape" fill="#CCCCCC" sketch:type="MSShapeGroup"></path>
            </g>
            <g id="sunny" sketch:type="MSLayerGroup" transform="translate(0.000000, 440.000000)">
                <path d="M44.9867901,23.8322222 C33.480595,23.8322222 24.0953653,33.119537 24.0953653,44.5 C24.0953653,55.880463 33.480595,65.1677778 44.9867901,65.1677778 C56.4929851,65.1677778 65.8782149,55.880463 65.8782149,44.5 C65.8782149,33.119537 56.4929851,23.8322222 44.9867901,23.8322222" id="Shape" fill="#FFC832" sketch:type="MSShapeGroup"></path>
                <path d="M79.2987769,37.6288704 L89.971914,30.7478519 L77.0361917,31.0840741 C69.9318744,31.2653704 66.0698182,26.2632407 68.4556959,19.9590741 L72.7909289,8.49785185 L62.5343207,15.9260556 C56.9011835,19.9969815 50.6532496,18.0834815 48.6422479,11.6721852 L44.9867901,0 L41.3329983,11.6721852 C39.3219967,18.0834815 33.0740628,19.9969815 27.4409256,15.9260556 L17.1843174,8.49785185 L21.5178843,19.9590741 C23.903762,26.2632407 20.0400397,31.2653704 12.9373884,31.0840741 L0.0016661157,30.7478519 L10.6748033,37.6288704 C16.5361983,41.4080741 16.5361983,47.5919259 10.6748033,51.3727778 L0.0016661157,58.2521481 L12.9373884,57.9159259 C20.0400397,57.7362778 23.903762,62.7384074 21.5178843,69.0409259 L17.1843174,80.5021481 L27.4409256,73.0755926 C33.0740628,69.0030185 39.3219967,70.9165185 41.3329983,77.3278148 L44.9867901,89 L48.6405818,77.3278148 C50.6515835,70.9165185 56.8995174,69.0030185 62.5326545,73.0755926 L72.7892628,80.5021481 L68.4540298,69.0409259 C66.0681521,62.7384074 69.9318744,57.7362778 77.0345256,57.9159259 L89.9702479,58.2521481 L79.2971107,51.3727778 C73.4373818,47.5919259 73.4373818,41.4080741 79.2987769,37.6288704 M44.9867901,68.4640741 C31.6278744,68.4640741 20.7631339,57.7132037 20.7631339,44.5 C20.7631339,31.2867963 31.6278744,20.5359259 44.9867901,20.5359259 C58.3457058,20.5359259 69.2104463,31.2867963 69.2104463,44.5 C69.2104463,57.7132037 58.3457058,68.4640741 44.9867901,68.4640741" id="Shape" fill="#FFCE4A" sketch:type="MSShapeGroup"></path>
            </g>
        </g>
    </g>
</svg>